<?xml version="1.0" encoding="UTF-8"?>
<svg xmlns="http://www.w3.org/2000/svg" viewBox="0 0 24 24" width="24px" height="24px">
<g id="surface11076329">
<path style=" stroke:none;fill-rule:nonzero;fill:rgb(100%,100%,100%);fill-opacity:1;" d="M 12 24 C 5.371094 24 0 18.628906 0 12 C 0 5.371094 5.371094 0 12 0 C 18.628906 0 24 5.371094 24 12 C 24 18.628906 18.628906 24 12 24 Z M 12 24 "/>
<path style=" stroke:none;fill-rule:nonzero;fill:rgb(0%,0%,0%);fill-opacity:1;" d="M 10.765625 0.945312 C 5.613281 1.503906 1.46875 5.648438 0.910156 10.6875 C 0.347656 15.953125 3.375 20.65625 7.964844 22.449219 C 8.300781 22.5625 8.636719 22.335938 8.636719 21.890625 L 8.636719 20.097656 C 8.636719 20.097656 8.191406 20.207031 7.628906 20.207031 C 6.0625 20.207031 5.390625 18.863281 5.277344 18.082031 C 5.164062 17.632812 4.941406 17.296875 4.605469 16.960938 C 4.269531 16.847656 4.15625 16.847656 4.15625 16.738281 C 4.15625 16.511719 4.492188 16.511719 4.605469 16.511719 C 5.277344 16.511719 5.835938 17.296875 6.0625 17.632812 C 6.621094 18.527344 7.292969 18.753906 7.628906 18.753906 C 8.078125 18.753906 8.414062 18.640625 8.636719 18.527344 C 8.75 17.746094 9.085938 16.960938 9.757812 16.511719 C 7.179688 15.953125 5.277344 14.496094 5.277344 12.03125 C 5.277344 10.800781 5.835938 9.570312 6.621094 8.671875 C 6.507812 8.449219 6.398438 7.890625 6.398438 7.105469 C 6.398438 6.65625 6.398438 6.097656 6.621094 5.648438 C 6.621094 5.425781 6.84375 5.3125 6.957031 5.3125 L 7.070312 5.3125 C 7.628906 5.425781 8.75 5.761719 9.757812 6.769531 C 10.429688 6.546875 11.214844 6.433594 11.996094 6.433594 C 12.78125 6.433594 13.566406 6.546875 14.238281 6.769531 C 15.246094 5.761719 16.476562 5.425781 17.039062 5.3125 L 17.148438 5.3125 C 17.375 5.3125 17.484375 5.425781 17.597656 5.648438 C 17.597656 6.097656 17.597656 6.65625 17.597656 7.105469 C 17.597656 8 17.484375 8.449219 17.375 8.671875 C 18.15625 9.570312 18.71875 10.6875 18.71875 12.03125 C 18.71875 14.496094 16.8125 15.953125 14.238281 16.511719 C 14.910156 17.074219 15.359375 18.082031 15.359375 19.089844 L 15.359375 22 C 15.359375 22.335938 15.695312 22.671875 16.140625 22.5625 C 20.285156 20.882812 23.199219 16.847656 23.199219 12.144531 C 23.199219 5.425781 17.484375 0.160156 10.765625 0.945312 Z M 10.765625 0.945312 "/>
</g>
</svg>
